<svg width="181" height="65" viewBox="0 0 181 65" fill="none" xmlns="http://www.w3.org/2000/svg">
<path d="M13.384 48.984C10.536 48.984 8.376 48.088 6.904 46.296C5.464 44.536 4.744 42.264 4.744 39.48C4.744 38.808 4.776 38.152 4.84 37.512C5.192 34.28 6.168 31.208 7.768 28.296C9.4 25.384 11.432 22.776 13.864 20.472C12.584 20.248 11.176 19.928 9.64 19.512C8.136 19.096 6.696 18.568 5.32 17.928C3.976 17.288 2.872 16.552 2.008 15.72C1.144 14.856 0.712 13.864 0.712 12.744C0.712 12.104 0.936 11.592 1.384 11.208C1.832 10.824 2.376 10.552 3.016 10.392C3.656 10.2 4.296 10.104 4.936 10.104C5.992 10.104 7.224 10.28 8.632 10.632C10.04 10.984 11.416 11.432 12.76 11.976C14.136 12.488 15.256 13.032 16.12 13.608C16.248 13.704 16.392 13.832 16.552 13.992C16.712 14.12 16.792 14.28 16.792 14.472C16.792 14.6 16.728 14.696 16.6 14.76C16.472 14.792 16.376 14.776 16.312 14.712C14.648 13.848 12.76 13.176 10.648 12.696C8.536 12.216 6.536 11.976 4.648 11.976C4.2 11.976 3.752 12.056 3.304 12.216C2.856 12.344 2.632 12.632 2.632 13.08C2.632 13.464 2.76 13.848 3.016 14.232C3.304 14.584 3.576 14.888 3.832 15.144C5.144 16.392 6.792 17.4 8.776 18.168C10.76 18.904 12.712 19.432 14.632 19.752C16.936 17.736 19.4 16.136 22.024 14.952C23.912 14.12 25.864 13.512 27.88 13.128C29.928 12.712 32.152 12.504 34.552 12.504C35.352 12.568 36.216 12.712 37.144 12.936C38.104 13.128 38.92 13.48 39.592 13.992C40.264 14.472 40.6 15.16 40.6 16.056C40.6 16.888 40.296 17.608 39.688 18.216C39.112 18.824 38.36 19.32 37.432 19.704C36.504 20.088 35.528 20.376 34.504 20.568C33.544 20.792 32.504 20.968 31.384 21.096C30.296 21.192 29.24 21.272 28.216 21.336C27.192 21.368 26.344 21.384 25.672 21.384C24.424 21.384 23.176 21.368 21.928 21.336C20.712 21.304 19.496 21.224 18.28 21.096C16.168 22.952 14.312 25.08 12.712 27.48C11.752 29.016 10.904 30.632 10.168 32.328C9.464 33.992 8.952 35.736 8.632 37.56C8.504 38.136 8.408 38.728 8.344 39.336C8.312 39.912 8.296 40.488 8.296 41.064C8.296 43.016 8.728 44.632 9.592 45.912C10.456 47.224 11.88 47.88 13.864 47.88C15.016 47.88 16.264 47.624 17.608 47.112C18.92 46.632 20.232 45.96 21.544 45.096C22.888 44.232 24.168 43.24 25.384 42.12C26.6 41 27.672 39.816 28.6 38.568C29.528 37.32 30.264 36.056 30.808 34.776C31.384 33.464 31.672 32.216 31.672 31.032C31.672 30.328 31.496 29.848 31.144 29.592C30.792 29.336 30.296 29.208 29.656 29.208C28.824 29.208 27.912 29.448 26.92 29.928C25.928 30.44 24.92 31.112 23.896 31.944C22.872 32.744 21.88 33.656 20.92 34.68C19.928 35.704 19.064 36.744 18.328 37.8C17.56 38.888 16.952 39.944 16.504 40.968C16.056 41.96 15.832 42.84 15.832 43.608C15.832 43.768 15.784 43.96 15.688 44.184C15.624 44.408 15.496 44.52 15.304 44.52C15.112 44.52 15 44.424 14.968 44.232C14.936 44.04 14.92 43.896 14.92 43.8C14.92 42.904 15.096 41.96 15.448 40.968C15.8 39.976 16.152 39.08 16.504 38.28C17.144 37.096 17.912 35.88 18.808 34.632C19.736 33.384 20.776 32.232 21.928 31.176C23.08 30.088 24.312 29.224 25.624 28.584C26.936 27.912 28.28 27.576 29.656 27.576C30.904 27.576 31.88 27.832 32.584 28.344C33.32 28.856 33.688 29.768 33.688 31.08C33.688 33.48 33.08 35.768 31.864 37.944C30.648 40.088 29.08 41.976 27.16 43.608C25.208 45.24 23.016 46.536 20.584 47.496C18.184 48.488 15.784 48.984 13.384 48.984ZM21.16 20.184C22.6 20.184 24.152 20.12 25.816 19.992C27.48 19.864 29.128 19.656 30.76 19.368C32.424 19.08 33.928 18.712 35.272 18.264C35.624 18.168 35.992 18.056 36.376 17.928C36.76 17.8 37.112 17.64 37.432 17.448C37.72 17.32 38.072 17.112 38.488 16.824C38.936 16.504 39.16 16.168 39.16 15.816C39.16 15.4 38.888 15.112 38.344 14.952C37.832 14.76 37.24 14.648 36.568 14.616C35.896 14.584 35.352 14.568 34.936 14.568C31.992 14.568 29.208 15.064 26.584 16.056C23.96 17.048 21.544 18.424 19.336 20.184H21.16ZM44.1093 45.192C42.8293 45.192 42.1893 44.36 42.1893 42.696C42.1893 42.12 42.2853 41.48 42.4773 40.776C42.5413 40.552 42.6853 40.184 42.9093 39.672C43.1333 39.16 43.3893 38.6 43.6773 37.992C43.9653 37.352 44.2373 36.76 44.4933 36.216C44.7493 35.64 44.9253 35.192 45.0213 34.872C44.3493 35.896 43.5973 36.92 42.7653 37.944C41.9653 38.936 41.1013 39.768 40.1733 40.44C39.2453 41.112 38.2533 41.448 37.1973 41.448C36.2053 41.416 35.5013 41.144 35.0853 40.632C34.6693 40.12 34.4613 39.496 34.4613 38.76C34.4613 37.896 34.6533 36.952 35.0373 35.928C35.4213 34.904 35.8533 33.992 36.3333 33.192C37.1653 31.88 38.1733 30.6 39.3573 29.352C40.5413 28.104 41.8053 27.08 43.1493 26.28C44.4933 25.448 45.7733 25.032 46.9893 25.032C47.6293 25.032 48.2533 25.144 48.8613 25.368C49.4693 25.56 50.0773 25.896 50.6853 26.376C51.1653 26.76 51.4053 27.176 51.4053 27.624C51.4053 28.072 51.2133 28.296 50.8293 28.296C50.5413 28.296 50.3333 28.104 50.2053 27.72C49.7893 26.632 49.1173 26.088 48.1893 26.088C47.3573 26.088 46.4293 26.456 45.4053 27.192C44.3813 27.928 43.3733 28.808 42.3813 29.832C41.2613 30.952 40.2693 32.184 39.4053 33.528C38.5413 34.872 37.8853 36.088 37.4373 37.176C37.0213 38.168 36.8133 38.904 36.8133 39.384C36.8133 39.992 37.0533 40.296 37.5333 40.296C38.0773 40.296 38.8773 39.88 39.9333 39.048C40.6373 38.504 41.4053 37.8 42.2373 36.936C43.0693 36.04 43.8533 35.16 44.5893 34.296C45.3253 33.432 45.9013 32.76 46.3173 32.28C46.6693 31.736 46.9573 31.304 47.1813 30.984C47.3093 30.792 47.5173 30.648 47.8053 30.552C48.0933 30.456 48.3973 30.408 48.7173 30.408C49.1013 30.408 49.4213 30.488 49.6773 30.648C49.9333 30.776 49.9973 30.984 49.8693 31.272C49.7413 31.56 49.4533 32.12 49.0053 32.952C48.5893 33.752 48.1093 34.664 47.5653 35.688C47.0533 36.712 46.5573 37.688 46.0773 38.616C45.6293 39.544 45.2933 40.264 45.0693 40.776C44.6213 41.768 44.3973 42.504 44.3973 42.984C44.3973 43.4 44.5573 43.608 44.8773 43.608C45.1013 43.608 45.4373 43.48 45.8853 43.224C46.5893 42.872 47.2933 42.376 47.9973 41.736C48.7013 41.064 49.3733 40.36 50.0133 39.624C50.3653 39.272 50.6853 38.936 50.9733 38.616C51.2613 38.296 51.5333 37.96 51.7893 37.608C51.8853 37.512 51.9653 37.464 52.0293 37.464C52.2213 37.464 52.3173 37.608 52.3173 37.896C52.3173 38.056 52.2533 38.2 52.1253 38.328C51.7733 38.776 51.4213 39.208 51.0693 39.624C50.7173 40.04 50.3493 40.456 49.9653 40.872C49.6133 41.288 49.2453 41.704 48.8613 42.12C48.5093 42.504 48.1413 42.872 47.7573 43.224C47.0533 43.896 46.3813 44.392 45.7413 44.712C45.1333 45.032 44.5893 45.192 44.1093 45.192ZM59.9204 45.144C58.7684 45.144 57.8884 44.712 57.2804 43.848C56.6724 42.984 56.3684 42.008 56.3684 40.92C56.3684 40.728 56.3684 40.536 56.3684 40.344C56.4004 40.152 56.4324 39.96 56.4644 39.768C56.6244 39.096 56.9764 38.472 57.5204 37.896C58.0644 37.288 58.4964 36.984 58.8164 36.984C58.8164 36.952 58.8804 36.936 59.0084 36.936C59.8084 36.936 60.6404 36.728 61.5044 36.312C62.3684 35.864 63.1524 35.336 63.8564 34.728C64.5604 34.12 65.0724 33.544 65.3924 33C65.5844 32.648 65.6804 32.36 65.6804 32.136C65.6804 31.72 65.4084 31.512 64.8644 31.512C64.6724 31.512 64.4644 31.544 64.2404 31.608C64.0484 31.672 63.8244 31.736 63.5684 31.8C62.8324 32.056 62.0004 32.488 61.0724 33.096C60.1444 33.672 59.2644 34.424 58.4324 35.352C57.8884 35.928 57.2004 36.728 56.3684 37.752C55.5684 38.744 54.7524 39.8 53.9204 40.92C53.1204 42.04 52.4484 43.048 51.9044 43.944C51.7444 44.232 51.5364 44.456 51.2804 44.616C51.0244 44.744 50.7684 44.808 50.5124 44.808C50.2564 44.808 50.0324 44.744 49.8404 44.616C49.6484 44.456 49.5524 44.232 49.5524 43.944C49.5524 43.752 49.6004 43.544 49.6964 43.32C49.9204 42.744 50.1924 42.072 50.5124 41.304C50.8324 40.504 51.1364 39.72 51.4244 38.952C51.7444 38.184 52.0324 37.544 52.2884 37.032C52.7044 36.04 53.1684 35 53.6804 33.912C54.1924 32.824 54.7844 31.608 55.4564 30.264C56.1924 28.824 57.0724 27.192 58.0964 25.368C59.1204 23.544 60.2084 21.72 61.3604 19.896C62.5444 18.04 63.7284 16.344 64.9124 14.808C66.0964 13.24 67.2324 11.992 68.3204 11.064C69.3444 10.168 70.2404 9.624 71.0084 9.432C71.8084 9.24 72.4964 9.112 73.0724 9.048C72.0804 10.104 71.1044 11.16 70.1444 12.216C69.2164 13.272 68.2724 14.456 67.3124 15.768C65.7764 17.848 64.2724 20.008 62.8004 22.248C61.3284 24.456 60.0324 26.712 58.9124 29.016C58.1444 30.744 57.3124 32.44 56.4164 34.104C55.5204 35.768 54.7844 37.384 54.2084 38.952C54.8484 38.184 55.5844 37.288 56.4164 36.264C57.2484 35.208 58.1284 34.184 59.0564 33.192C59.9844 32.168 60.9124 31.288 61.8404 30.552C62.8004 29.816 63.7124 29.352 64.5764 29.16C64.8004 29.096 65.0084 29.064 65.2004 29.064C65.3924 29.064 65.5684 29.064 65.7284 29.064C66.5604 29.064 67.1524 29.24 67.5044 29.592C67.8564 29.944 68.0324 30.392 68.0324 30.936C68.0324 31.832 67.6324 32.808 66.8324 33.864C66.2884 34.536 65.5364 35.16 64.5764 35.736C63.6484 36.28 62.6724 36.728 61.6484 37.08C60.6244 37.4 59.7124 37.576 58.9124 37.608C58.8804 37.864 58.8484 38.168 58.8164 38.52C58.8164 38.84 58.8164 39.176 58.8164 39.528C58.8164 40.52 58.9124 41.464 59.1044 42.36C59.3284 43.224 59.7764 43.656 60.4484 43.656C60.6084 43.656 60.8004 43.624 61.0244 43.56C61.2804 43.496 61.5684 43.384 61.8884 43.224C62.5924 42.872 63.2964 42.376 64.0004 41.736C64.7044 41.064 65.3764 40.36 66.0164 39.624C66.3684 39.272 66.6884 38.936 66.9764 38.616C67.2644 38.296 67.5364 37.96 67.7924 37.608C67.8564 37.512 67.9204 37.464 67.9844 37.464C68.1764 37.464 68.2724 37.608 68.2724 37.896C68.2724 38.056 68.2084 38.2 68.0804 38.328L65.9684 40.872C65.6484 41.288 65.2964 41.704 64.9124 42.12C64.5604 42.504 64.1764 42.872 63.7604 43.224C62.4164 44.504 61.1364 45.144 59.9204 45.144ZM69.4236 51.912C68.1756 51.912 67.2156 51.4 66.5436 50.376C65.8716 49.384 65.5356 47.96 65.5356 46.104C65.5356 45.784 65.5516 45.464 65.5836 45.144C65.5836 44.824 65.5996 44.488 65.6316 44.136C65.8236 42.568 66.3036 40.856 67.0716 39C67.8716 37.144 69.0876 35.16 70.7196 33.048C71.8076 31.64 72.9916 30.584 74.2716 29.88C75.5516 29.176 76.7836 28.824 77.9676 28.824C78.7996 28.824 79.5356 28.984 80.1756 29.304C80.9436 29.72 81.3276 30.472 81.3276 31.56C81.3276 32.36 81.0396 33.256 80.4636 34.248C79.8876 35.208 78.9116 36.136 77.5356 37.032C75.7116 38.184 74.1916 38.952 72.9756 39.336C71.7596 39.72 70.7836 39.928 70.0476 39.96C69.7916 40.312 69.5356 40.872 69.2796 41.64C69.0236 42.376 68.7996 43.16 68.6076 43.992C68.4476 44.792 68.3356 45.512 68.2716 46.152C68.2716 46.28 68.2556 46.408 68.2236 46.536C68.2236 46.696 68.2236 46.856 68.2236 47.016C68.2236 47.976 68.3836 48.792 68.7036 49.464C69.0556 50.168 69.6636 50.52 70.5276 50.52C71.2956 50.52 72.1596 50.232 73.1196 49.656C74.0796 49.112 75.0236 48.44 75.9516 47.64C76.9116 46.872 77.7436 46.12 78.4476 45.384C79.1836 44.68 79.6956 44.152 79.9836 43.8L83.5356 39.672L85.4556 37.464C85.5516 37.368 85.6316 37.32 85.6956 37.32C85.8876 37.32 85.9836 37.448 85.9836 37.704C85.9836 37.8 85.9036 37.96 85.7436 38.184C85.4236 38.632 85.0556 39.096 84.6396 39.576C84.2556 40.056 83.8876 40.504 83.5356 40.92C83.0876 41.432 82.5276 42.088 81.8556 42.888C81.2156 43.688 80.5276 44.52 79.7916 45.384C79.0876 46.248 78.3996 47 77.7276 47.64C76.5116 48.824 75.1996 49.832 73.7916 50.664C72.4156 51.496 70.9596 51.912 69.4236 51.912ZM70.4796 39.192C70.9276 39.16 71.4876 38.984 72.1596 38.664C72.8316 38.344 73.5356 37.96 74.2716 37.512C75.0076 37.064 75.6796 36.616 76.2876 36.168C76.9276 35.688 77.4396 35.288 77.8236 34.968C78.5596 34.392 79.1036 33.752 79.4556 33.048C79.8076 32.344 79.9836 31.736 79.9836 31.224C79.9836 30.872 79.8876 30.568 79.6956 30.312C79.5356 30.056 79.2796 29.928 78.9276 29.928C78.2556 29.928 77.5196 30.264 76.7196 30.936C75.9516 31.576 75.1676 32.408 74.3676 33.432C73.5996 34.424 72.8636 35.448 72.1596 36.504C71.4876 37.528 70.9276 38.424 70.4796 39.192ZM98.8109 49.224C98.4269 49.224 98.0269 49.208 97.6109 49.176C97.1949 49.144 96.7629 49.096 96.3149 49.032C94.6509 48.776 93.0829 48.216 91.6109 47.352C90.1389 46.52 88.8269 45.464 87.6749 44.184C86.5229 42.904 85.6109 41.528 84.9389 40.056C84.8109 39.896 84.7949 39.784 84.8909 39.72C84.9869 39.656 85.0669 39.704 85.1309 39.864C85.3869 40.344 85.7229 40.824 86.1389 41.304C86.5549 41.784 87.0189 42.264 87.5309 42.744C88.7469 43.832 90.0109 44.664 91.3229 45.24C92.6669 45.848 94.1709 46.152 95.8349 46.152C97.9469 46.152 99.5629 45.848 100.683 45.24C101.835 44.632 102.411 43.8 102.411 42.744C102.411 41.592 101.803 40.344 100.587 39C99.9789 38.36 99.2909 37.56 98.5229 36.6L96.1709 33.72C94.7949 32.024 93.6589 30.504 92.7629 29.16C91.8989 27.784 91.4669 26.392 91.4669 24.984C91.4669 24.216 91.6109 23.416 91.8989 22.584C92.2189 21.752 92.7309 20.84 93.4349 19.848C91.2909 19.528 89.4189 19.176 87.8189 18.792C86.2509 18.376 85.1789 17.944 84.6029 17.496C84.2189 17.272 83.9309 17.064 83.7389 16.872C83.5789 16.68 83.4989 16.536 83.4989 16.44C83.4989 16.312 83.5789 16.248 83.7389 16.248C84.0269 16.248 84.4269 16.408 84.9389 16.728C85.8349 17.368 87.0829 17.864 88.6829 18.216C90.2829 18.536 92.0589 18.776 94.0109 18.936L95.1149 17.688C96.1389 16.504 97.3869 15.496 98.8589 14.664C100.331 13.832 101.883 13.16 103.515 12.648C105.179 12.104 106.811 11.704 108.411 11.448C110.011 11.192 111.467 11.064 112.779 11.064C113.611 11.064 114.491 11.192 115.419 11.448C116.379 11.704 117.195 12.088 117.867 12.6C118.571 13.112 118.923 13.768 118.923 14.568C118.923 14.696 118.907 14.84 118.875 15C118.843 15.16 118.795 15.32 118.731 15.48C118.315 16.664 117.355 17.608 115.851 18.312C114.347 18.984 112.539 19.48 110.427 19.8C108.027 20.184 105.467 20.376 102.747 20.376C100.539 20.376 98.4269 20.28 96.4109 20.088C95.5149 20.984 94.8429 21.944 94.3949 22.968C93.9789 23.96 93.7709 24.984 93.7709 26.04C93.7709 28.344 94.6989 30.648 96.5549 32.952C97.4509 34.008 98.3629 35.016 99.2909 35.976C100.219 36.936 101.179 37.928 102.171 38.952C103.195 39.944 103.947 40.936 104.427 41.928C104.907 42.888 105.147 43.8 105.147 44.664C105.147 46.008 104.587 47.096 103.467 47.928C102.379 48.792 100.827 49.224 98.8109 49.224ZM97.5149 19.176C99.1789 19.176 100.907 19.112 102.699 18.984C104.523 18.856 106.299 18.648 108.027 18.36C109.755 18.072 111.323 17.704 112.731 17.256C114.171 16.776 115.339 16.216 116.235 15.576C116.843 15.064 117.147 14.696 117.147 14.472C117.147 14.152 116.523 13.896 115.275 13.704C114.795 13.64 114.315 13.592 113.835 13.56C113.355 13.528 112.891 13.512 112.443 13.512C110.459 13.512 108.619 13.768 106.923 14.28C105.227 14.76 103.707 15.352 102.363 16.056C101.723 16.376 100.971 16.792 100.107 17.304C99.2749 17.816 98.4109 18.44 97.5149 19.176ZM111.334 53.448C110.726 53.448 110.198 53.192 109.75 52.68C109.302 52.168 109.078 51.368 109.078 50.28C109.078 49.672 109.142 49.048 109.27 48.408C109.334 48.088 109.462 47.464 109.654 46.536C109.846 45.608 110.07 44.664 110.326 43.704C110.614 42.52 111.014 41.176 111.526 39.672C112.038 38.136 112.662 36.52 113.398 34.824C113.942 33.48 114.502 32.216 115.078 31.032C115.654 29.848 116.23 28.696 116.806 27.576H110.182C109.83 27.576 109.654 27.496 109.654 27.336C109.654 26.984 110.006 26.808 110.71 26.808H117.238C118.038 25.368 118.87 24.008 119.734 22.728C120.598 21.448 121.558 20.248 122.614 19.128C123.158 18.488 123.654 18.04 124.102 17.784C124.582 17.528 125.062 17.352 125.542 17.256C126.054 17.128 126.614 17 127.222 16.872C125.75 18.664 124.454 20.36 123.334 21.96C122.246 23.528 121.222 25.144 120.262 26.808H127.366C127.75 26.808 127.942 26.904 127.942 27.096C127.942 27.192 127.846 27.304 127.654 27.432C127.494 27.528 127.238 27.576 126.886 27.576H119.83C119.062 28.92 118.326 30.344 117.622 31.848C116.918 33.32 116.166 34.936 115.366 36.696C114.694 38.168 114.086 39.752 113.542 41.448C113.03 43.112 112.614 44.648 112.294 46.056C111.974 47.464 111.814 48.472 111.814 49.08C111.814 50.552 112.214 51.288 113.014 51.288C113.398 51.288 113.878 51.096 114.454 50.712C115.702 49.944 116.822 49.144 117.814 48.312C118.806 47.512 119.75 46.664 120.646 45.768C121.126 45.32 121.686 44.744 122.326 44.04C122.998 43.336 123.67 42.616 124.342 41.88C125.014 41.144 125.606 40.488 126.118 39.912L126.934 39C127.03 38.904 127.11 38.856 127.174 38.856C127.366 38.856 127.462 38.984 127.462 39.24C127.462 39.4 127.398 39.56 127.27 39.72C127.11 39.976 126.934 40.216 126.742 40.44C126.518 40.664 126.31 40.904 126.118 41.16C124.742 42.856 123.222 44.568 121.558 46.296C119.894 48.024 118.182 49.608 116.422 51.048C115.686 51.624 114.918 52.168 114.118 52.68C113.318 53.192 112.39 53.448 111.334 53.448ZM131.245 45.192C130.157 45.192 129.245 44.728 128.509 43.8C127.805 42.872 127.453 41.688 127.453 40.248C127.453 39.096 127.645 37.96 128.029 36.84C128.413 35.752 128.925 34.712 129.565 33.72C130.237 32.728 130.989 31.8 131.821 30.936C132.909 29.816 134.141 28.84 135.517 28.008C136.925 27.176 138.205 26.76 139.357 26.76C140.253 26.76 140.941 26.984 141.421 27.432C141.933 27.848 142.189 28.36 142.189 28.968C142.189 29.352 142.061 29.768 141.805 30.216C142.637 30.312 143.453 30.36 144.253 30.36C144.861 30.36 145.469 30.328 146.077 30.264C146.685 30.2 147.293 30.104 147.901 29.976H148.093C148.349 29.976 148.477 30.04 148.477 30.168C148.477 30.296 148.333 30.408 148.045 30.504C147.725 30.632 147.197 30.76 146.461 30.888C145.725 31.016 144.957 31.128 144.157 31.224C143.357 31.288 142.637 31.32 141.997 31.32C141.773 31.32 141.581 31.32 141.421 31.32C141.261 31.32 141.117 31.304 140.989 31.272L140.509 31.512C140.893 32.056 141.085 32.808 141.085 33.768C141.085 35.048 140.765 36.36 140.125 37.704C139.517 39.016 138.701 40.248 137.677 41.4C136.685 42.52 135.613 43.432 134.461 44.136C133.341 44.84 132.269 45.192 131.245 45.192ZM131.677 44.04C132.541 44.04 133.389 43.736 134.221 43.128C135.053 42.488 135.805 41.672 136.477 40.68C137.181 39.656 137.757 38.568 138.205 37.416C138.685 36.232 139.005 35.096 139.165 34.008C139.197 33.816 139.213 33.64 139.213 33.48C139.213 33.288 139.213 33.112 139.213 32.952C139.213 32.664 139.197 32.408 139.165 32.184C139.133 31.928 139.069 31.736 138.973 31.608C138.909 31.608 138.861 31.592 138.829 31.56C138.445 31.496 138.157 31.4 137.965 31.272C137.805 31.144 137.613 31 137.389 30.84C137.261 30.68 137.197 30.488 137.197 30.264C137.197 30.04 137.277 29.864 137.437 29.736C137.629 29.608 137.837 29.576 138.061 29.64C138.861 29.8 139.725 29.944 140.653 30.072C140.973 29.528 141.133 29.032 141.133 28.584C141.133 27.816 140.557 27.432 139.405 27.432C138.701 27.432 137.965 27.704 137.197 28.248C136.461 28.76 135.725 29.448 134.989 30.312C134.253 31.144 133.549 32.072 132.877 33.096C132.205 34.088 131.629 35.064 131.149 36.024C130.829 36.664 130.541 37.448 130.285 38.376C130.061 39.304 129.949 40.2 129.949 41.064C129.949 41.864 130.077 42.568 130.333 43.176C130.621 43.752 131.069 44.04 131.677 44.04ZM146.654 53.064C145.662 53.064 144.942 52.808 144.494 52.296C144.078 51.816 143.87 51.176 143.87 50.376C143.87 49.864 143.966 49.256 144.158 48.552C144.414 47.464 144.846 46.28 145.454 45C146.094 43.752 146.654 42.76 147.134 42.024C147.518 41.448 147.902 40.856 148.286 40.248C148.67 39.64 149.07 39.016 149.486 38.376L151.838 34.632C152.286 33.928 152.51 33.224 152.51 32.52C152.51 31.752 152.206 31.16 151.598 30.744L150.926 30.312C150.67 30.152 150.478 30.008 150.35 29.88L149.678 30.984L149.006 32.04C148.334 32.968 147.566 33.992 146.702 35.112C145.838 36.232 145.006 37.304 144.206 38.328C143.406 39.352 142.734 40.168 142.19 40.776C142.094 40.872 141.998 40.92 141.902 40.92C141.742 40.92 141.63 40.84 141.566 40.68C141.47 40.52 141.486 40.376 141.614 40.248C142.862 38.84 144.062 37.4 145.214 35.928C146.398 34.424 147.47 32.856 148.43 31.224L149.006 30.264L149.582 29.256C149.326 29.096 149.086 28.808 148.862 28.392C148.638 27.944 148.526 27.528 148.526 27.144C148.526 26.6 148.75 26.28 149.198 26.184H149.246C149.566 26.184 149.886 26.376 150.206 26.76C150.526 27.208 150.67 28.024 150.638 29.208C151.406 29.784 152.158 30.168 152.894 30.36C153.63 30.552 154.222 30.792 154.67 31.08C155.15 31.336 155.39 31.848 155.39 32.616C155.39 32.744 155.374 32.888 155.342 33.048C155.342 33.208 155.326 33.368 155.294 33.528C155.134 34.296 154.718 35.24 154.046 36.36C153.406 37.48 152.686 38.632 151.886 39.816C151.086 40.968 150.398 41.976 149.822 42.84C149.246 43.768 148.638 44.776 147.998 45.864C147.358 46.984 146.83 48.04 146.414 49.032C146.03 50.024 145.902 50.808 146.03 51.384C146.126 51.704 146.35 51.864 146.702 51.864C147.214 51.864 147.838 51.656 148.574 51.24C149.566 50.664 150.478 50.04 151.31 49.368C152.142 48.728 153.006 47.96 153.902 47.064C154.382 46.584 154.99 45.912 155.726 45.048C156.494 44.216 157.294 43.32 158.126 42.36C158.958 41.368 159.726 40.472 160.43 39.672C160.718 39.288 161.038 38.904 161.39 38.52L162.35 37.464C162.446 37.368 162.526 37.32 162.59 37.32C162.782 37.32 162.878 37.448 162.878 37.704C162.878 37.8 162.798 37.96 162.638 38.184C162.318 38.632 161.95 39.096 161.534 39.576C161.15 40.056 160.782 40.504 160.43 40.92C159.598 41.88 158.67 42.968 157.646 44.184C156.654 45.368 155.646 46.536 154.622 47.688C153.63 48.84 152.67 49.832 151.742 50.664C151.006 51.304 150.238 51.864 149.438 52.344C148.638 52.824 147.71 53.064 146.654 53.064ZM163.83 51.912C162.582 51.912 161.622 51.4 160.95 50.376C160.278 49.384 159.942 47.96 159.942 46.104C159.942 45.784 159.958 45.464 159.99 45.144C159.99 44.824 160.006 44.488 160.038 44.136C160.23 42.568 160.71 40.856 161.478 39C162.278 37.144 163.494 35.16 165.126 33.048C166.214 31.64 167.398 30.584 168.678 29.88C169.958 29.176 171.19 28.824 172.374 28.824C173.206 28.824 173.942 28.984 174.582 29.304C175.35 29.72 175.734 30.472 175.734 31.56C175.734 32.36 175.446 33.256 174.87 34.248C174.294 35.208 173.318 36.136 171.942 37.032C170.118 38.184 168.598 38.952 167.382 39.336C166.166 39.72 165.19 39.928 164.454 39.96C164.198 40.312 163.942 40.872 163.686 41.64C163.43 42.376 163.206 43.16 163.014 43.992C162.854 44.792 162.742 45.512 162.678 46.152C162.678 46.28 162.662 46.408 162.63 46.536C162.63 46.696 162.63 46.856 162.63 47.016C162.63 47.976 162.79 48.792 163.11 49.464C163.462 50.168 164.07 50.52 164.934 50.52C165.702 50.52 166.566 50.232 167.526 49.656C168.486 49.112 169.43 48.44 170.358 47.64C171.318 46.872 172.15 46.12 172.854 45.384C173.59 44.68 174.102 44.152 174.39 43.8L177.942 39.672L179.862 37.464C179.958 37.368 180.038 37.32 180.102 37.32C180.294 37.32 180.39 37.448 180.39 37.704C180.39 37.8 180.31 37.96 180.15 38.184C179.83 38.632 179.462 39.096 179.046 39.576C178.662 40.056 178.294 40.504 177.942 40.92C177.494 41.432 176.934 42.088 176.262 42.888C175.622 43.688 174.934 44.52 174.198 45.384C173.494 46.248 172.806 47 172.134 47.64C170.918 48.824 169.606 49.832 168.198 50.664C166.822 51.496 165.366 51.912 163.83 51.912ZM164.886 39.192C165.334 39.16 165.894 38.984 166.566 38.664C167.238 38.344 167.942 37.96 168.678 37.512C169.414 37.064 170.086 36.616 170.694 36.168C171.334 35.688 171.846 35.288 172.23 34.968C172.966 34.392 173.51 33.752 173.862 33.048C174.214 32.344 174.39 31.736 174.39 31.224C174.39 30.872 174.294 30.568 174.102 30.312C173.942 30.056 173.686 29.928 173.334 29.928C172.662 29.928 171.926 30.264 171.126 30.936C170.358 31.576 169.574 32.408 168.774 33.432C168.006 34.424 167.27 35.448 166.566 36.504C165.894 37.528 165.334 38.424 164.886 39.192Z" fill="black"/>
</svg>
